Coordinates
version=1
nRows=9
nColumns=24
inDegrees=yes

Units are S.I. units (second, meters, Newtons, ...)
Angles are in degrees.

endheader
time	pelvis_tilt	pelvis_list	pelvis_rotation	pelvis_tx	pelvis_ty	pelvis_tz	hip_flexion_r	hip_adduction_r	hip_rotation_r	knee_angle_r	ankle_angle_r	subtalar_angle_r	mtp_angle_r	hip_flexion_l	hip_adduction_l	hip_rotation_l	knee_angle_l	ankle_angle_l	subtalar_angle_l	mtp_angle_l	lumbar_extension	lumbar_bending	lumbar_rotation
      3.67000000	     13.07401431	      0.49424439	     -2.66994662	     -0.52552321	      0.93980283	      0.01573934	    -24.06605561	     -2.68682675	     -0.77575343	    -12.07774219	     32.00488841	     14.96200218	     14.68374199	      3.13411686	      0.41277941	    -23.42361656	     -1.45741923	      4.94653452	     29.88572052	     41.42815927	    -23.11170331	      2.15495638	      5.44369803
      3.67500000	     13.07656078	      0.42239471	     -2.81948594	     -0.52052213	      0.93922700	      0.01536252	    -24.12263082	     -2.75132698	     -0.54433763	    -12.62864333	     32.10557371	     15.07377785	     14.75491620	      3.23890640	      0.34206175	    -22.90572960	     -2.19878058	      4.83289579	     29.30628319	     41.38308005	    -23.08574604	      2.06658493	      5.52544110
      3.68000000	     13.07499261	      0.35577780	     -2.94547156	     -0.51551918	      0.93868684	      0.01493379	    -24.15174999	     -2.81441337	     -0.35151873	    -13.23141301	     32.18733377	     15.18665637	     14.88149830	      3.34697067	      0.27961524	    -22.25091483	     -2.96020147	      4.68890011	     28.58193230	     41.32101742	    -23.05532941	      1.98006406	      5.59087176
      3.68500000	     13.07218904	      0.30258618	     -3.06600562	     -0.51050633	      0.93820855	      0.01449896	    -24.15798825	     -2.89059812	     -0.16735030	    -13.87801226	     32.23409724	     15.31611762	     15.06457022	      3.45594977	      0.23332213	    -21.52534611	     -3.73927264	      4.50513331	     27.74446852	     41.24093216	    -23.02092563	      1.87467489	      5.64319130
      3.69000000	     13.06508697	      0.26399090	     -3.16198606	     -0.50548668	      0.93777519	      0.01399078	    -24.13452739	     -2.97797500	     -0.04777168	    -14.57769778	     32.25377213	     15.47270981	     15.34974716	      3.57073926	      0.20995076	    -20.69274266	     -4.52777720	      4.29163768	     26.78840809	     41.13616701	    -22.97930019	      1.76493001	      5.68163720
      3.69500000	     13.04392211	      0.22140049	     -3.23747762	     -0.50047917	      0.93738616	      0.01343984	    -24.06346337	     -3.06040761	      0.02705794	    -15.33983098	     32.22290779	     15.75421667	     16.13280027	      3.71999618	      0.18181794	    -19.80845824	     -5.36881106	      4.14468513	     25.77821901	     40.96805349	    -22.92457275	      1.66544741	      5.69196405
      3.70000000	     13.06181461	      0.21728899	     -3.33836636	     -0.49546046	      0.93713909	      0.01289160	    -24.00333115	     -3.19238723	      0.12146730	    -16.15811779	     32.12646468	     15.90245965	     16.65094552	      3.78572712	      0.21732144	    -18.88030862	     -6.12229020	      3.90549256	     24.61445065	     40.78747952	    -22.91098149	      1.51353811	      5.72100657
      3.70500000	     13.06225423	      0.23593654	     -3.42822582	     -0.49042285	      0.93695749	      0.01232133	    -23.91564252	     -3.34602658	      0.20393737	    -16.98531133	     32.00504730	     16.11948034	     17.06015589	      3.89504369	      0.27687171	    -17.97747265	     -6.93852974	      3.64814616	     23.37287252	     40.60561423	    -22.87382608	      1.33856034	      5.73819712
      3.71000000	     13.05699320	      0.24997020	     -3.52923666	     -0.48540354	      0.93683783	      0.01172433	    -23.75179149	     -3.51320493	      0.21335149	    -17.92723109	     31.63481108	     16.39077029	     20.25993464	      4.00663846	      0.33307730	    -17.09390211	     -7.76648715	      3.53587066	     22.26841432	     39.75264068	    -22.83418205	      1.16921363	      5.78049989
